<svg xmlns="http://www.w3.org/2000/svg" xmlns:xlink="http://www.w3.org/1999/xlink" width="53" height="53" viewBox="0 0 53 53">
  <defs>
    <linearGradient id="a" x1="26.5" y1="52.5" x2="26.5" y2="0.5" gradientUnits="userSpaceOnUse">
      <stop offset="0" stop-color="#f09d96"/>
      <stop offset="1" stop-color="#ef993a"/>
    </linearGradient>
  </defs>
  <g>
    <g>
      <circle cx="26.5" cy="26.5" r="26" fill="url(#a)"/>
      <path d="M26.5,1A25.5,25.5,0,1,1,1,26.5,25.5,25.5,0,0,1,26.5,1m0-1A26.5,26.5,0,1,0,53,26.5,26.53,26.53,0,0,0,26.5,0Z" fill="#fff"/>
    </g>
    <path d="M35.5,13c-6,0-9,6-9,6s-3-6-9-6-8,5-8,9c0,9,9.5,16,17,22,7.5-6,17-13,17-22C43.5,18,41.5,13,35.5,13Z" fill="#fff"/>
  </g>
</svg>
